<svg width="0" height="0" class="hidden">
  <symbol xmlns="http://www.w3.org/2000/svg" viewBox="0 0 212.598 99.212" id="greens-food-suppliers">
    <path d="M18.876 41.014c0 11.111 2.638 14.664 6.951 14.664 4.312 0 6.95-3.553 6.95-14.664 0-11.112-2.638-14.664-6.95-14.664-4.313 0-6.951 3.552-6.951 14.664m22.681 43.535c0-2.792-1.269-4.312-5.988-4.312H17.707c-2.434 2.333-3.551 5.986-3.551 8.22 0 5.935 5.125 8.98 11.671 8.98 8.372 0 15.73-4.718 15.73-12.888m-6.598-59.062c7.968 2.03 13.245 7.002 13.245 15.527 0 11.417-9.591 16.541-22.377 16.541-3.248 0-6.292-.304-8.981-1.015-3.5 2.08-5.936 3.755-5.936 6.393 0 2.385 1.47 3.451 4.262 3.451H39.07c7.56 0 14.056 2.689 14.056 11.163 0 9.996-9.437 21.665-30.09 21.665C7.358 99.212 0 95.203 0 90.231c0-6.595 10.199-6.188 15.73-9.994h-2.436c-3.957 0-11.618-1.37-11.618-9.641 0-5.886 3.347-9.946 13.243-14.614-6.953-2.283-11.418-7.155-11.418-14.968 0-11.468 9.539-16.542 22.326-16.542 2.739 0 5.379.253 7.764.711z" fill="#008153"></path>
    <path d="M51.631 0s1.438 9.027-3.234 15.522c-4.675 6.498-13.69 8.006-13.69 8.006s-1.44-9.026 3.233-15.524C42.614 1.507 51.631 0 51.631 0m2.481 23.299s-3.491 2.351-8.038 2.792c-4.548.437-8.426-1.201-8.426-1.201s3.491-2.351 8.038-2.792c4.547-.438 8.426 1.201 8.426 1.201m-21.454-.353s-3.748-1.911-6.342-5.672c-2.591-3.762-3.039-7.949-3.039-7.949s3.75 1.913 6.342 5.673c2.59 3.761 3.039 7.948 3.039 7.948m28.161 71.915h1.407c1.947 0 3.455-.942 3.455-3.041 0-2.101-1.508-3.042-3.455-3.042h-1.407zm-.683-6.703h2.266c3.808 0 3.963 3.124 3.963 3.662 0 .538-.155 3.662-3.963 3.662h-2.266zm8.927 0h.683v7.324h-.683zm4.479 3.228h1.447c1.438 0 1.718-.796 1.718-1.303 0-.508-.28-1.304-1.718-1.304h-1.447zm-.684-3.228h1.924c.58 0 2.608 0 2.608 1.925 0 1.396-1.066 1.778-1.873 1.882l2.131 3.517h-.776l-2.058-3.476h-1.272v3.476h-.684zm7.261 0h4.479v.62h-3.796v2.608h3.558v.62h-3.558v2.855h3.962v.621h-4.645zm13.203 6.176c-.692.952-1.645 1.335-2.72 1.335-2.235 0-3.787-1.614-3.787-3.849 0-2.235 1.552-3.849 3.787-3.849.993 0 1.883.332 2.524 1.149l-.559.465c-.455-.682-1.23-.993-1.965-.993-1.914 0-3.104 1.407-3.104 3.228 0 1.82 1.19 3.228 3.104 3.228.735 0 1.645-.352 2.162-1.138zm4.232-5.556h-2.503v-.62h5.69v.62h-2.504v6.704h-.683zm9.667 6.083h1.406c1.946 0 3.456-.942 3.456-3.041 0-2.101-1.51-3.042-3.456-3.042h-1.406zm-.683-6.703h2.266c3.807 0 3.963 3.124 3.963 3.662 0 .538-.156 3.662-3.963 3.662h-2.266zm8.913 0h4.48v.62h-3.796v2.608h3.558v.62h-3.558v2.855h3.962v.621h-4.646zm7.142 0h.683v6.703h3.414v.621h-4.097zm6.372 0h.684v7.324h-.684zm2.9 0h.733l2.36 6.424 2.379-6.424h.724l-2.783 7.324h-.683zm8.423 0h4.479v.62h-3.796v2.608h3.558v.62h-3.558v2.855h3.962v.621h-4.645zm7.825 3.228h1.448c1.438 0 1.717-.796 1.717-1.303 0-.508-.279-1.304-1.717-1.304h-1.448zm-.684-3.228h1.925c.579 0 2.607 0 2.607 1.925 0 1.396-1.066 1.778-1.873 1.882l2.131 3.517h-.776l-2.059-3.476h-1.271v3.476h-.684zm8.877 4.169l-2.689-4.168h.817l2.214 3.475 2.265-3.475h.765l-2.688 4.168v3.155h-.684zm9.275 1.8c.362.61.951.921 1.676.921.921 0 1.645-.559 1.645-1.438 0-2.048-3.776-.849-3.776-3.631 0-1.304 1.117-2.008 2.35-2.008.795 0 1.499.269 1.995.922l-.59.423c-.341-.475-.796-.724-1.428-.724-.879 0-1.644.456-1.644 1.387 0 2.203 3.776.879 3.776 3.631 0 1.324-1.086 2.059-2.275 2.059-.963 0-1.812-.311-2.381-1.108zm6.63-5.969h4.48v.62h-3.796v2.608h3.558v.62h-3.558v2.855h3.961v.621h-4.645zm7.827 3.228h1.447c1.438 0 1.717-.796 1.717-1.303 0-.508-.279-1.304-1.717-1.304h-1.447zm-.684-3.228h1.924c.58 0 2.608 0 2.608 1.925 0 1.396-1.067 1.778-1.873 1.882l2.13 3.517h-.775l-2.059-3.476h-1.271v3.476h-.684zm6.311 0h.733l2.361 6.424 2.379-6.424h.724l-2.783 7.324h-.685zm8.423 0h.682v7.324h-.682zm9.871 6.176c-.693.952-1.644 1.335-2.72 1.335-2.237 0-3.788-1.614-3.788-3.849 0-2.235 1.551-3.849 3.788-3.849.992 0 1.883.332 2.521 1.149l-.557.465c-.455-.682-1.229-.993-1.964-.993-1.914 0-3.104 1.407-3.104 3.228 0 1.82 1.19 3.228 3.104 3.228.735 0 1.643-.352 2.159-1.138zm2.376-6.176h4.48v.62h-3.796v2.608h3.558v.62h-3.558v2.855h3.961v.621h-4.645z" fill="#85B731"></path>
    <path d="M66.091 71.447c0-.65.049-1.139-.131-1.448-.162-.309-.519-.455-1.349-.39v2.651h2.765v2.716h-2.765v1.773c0 .522-.049 1.042.471 1.367v2.473h-5.286v-2.473c.521-.325.472-.845.472-1.367v-6.261c0-.732-.049-1.172-.553-1.367v-2.473h10.133v4.799zm9.091 5.319c0 .098-.049 1.09.846 1.09s.845-.992.845-1.09v-6.311c0-.098.05-1.074-.845-1.074s-.846.976-.846 1.074zm6.035-.211c0 3.448-2.115 4.31-5.189 4.31-3.075 0-5.189-.862-5.189-4.31v-5.873c0-3.447 2.114-4.31 5.189-4.31 3.074 0 5.189.863 5.189 4.31zm5.67.211c0 .098-.049 1.09.846 1.09.894 0 .845-.992.845-1.09v-6.311c0-.098.049-1.074-.845-1.074-.895 0-.846.976-.846 1.074zm6.034-.211c0 3.448-2.114 4.31-5.188 4.31-3.075 0-5.19-.862-5.19-4.31v-5.873c0-3.447 2.115-4.31 5.19-4.31 3.074 0 5.188.863 5.188 4.31zm6.148 1.089h.342c.942 0 1.236-.341 1.236-1.35V71.04c0-1.008-.294-1.35-1.236-1.35h-.342zm1.122-10.996c1.188 0 2.554.017 3.546.782 1.139.894 1.253 2.163 1.253 3.497v5.221c0 1.367-.066 2.423-1.122 3.416-.993.943-2.23 1.025-3.546 1.025h-6.149v-2.472c.487-.212.537-.635.552-1.107v-6.783c-.015-.487-.049-.895-.552-1.106v-2.473zm17.59 4.213c0-.618-.016-1.48-.861-1.48-.553 0-.847.406-.847.927 0 .277.033.553.261.781.244.261.861.456 1.219.553 1.041.276 2.441.651 3.319 1.236.505.342.879.749 1.074 1.335.228.601.325 1.268.325 1.919v.065c0 2.684-1.188 4.668-5.336 4.668-1.772 0-3.643-.342-5.058-1.463V75.66h4.245c0 .829-.016 1.447.13 1.741a.893.893 0 00.781.455c.586 0 .846-.57.846-1.074 0-1.431-.895-1.545-2.099-1.838-2.635-.651-4.115-1.285-4.115-4.294v-.31c.065-1.496.308-2.244 1.448-3.105.927-.701 2.276-.863 3.578-.863 1.887 0 3.563.374 5.141 1.464v3.286h-4.051zm11.491-4.213h5.042v2.473c-.585.325-.537.845-.537 1.366v5.644c-.033 1.481-.147 2.652-1.334 3.693-1.025.894-2.44 1.041-3.692 1.041-1.253 0-2.668-.147-3.693-1.041-1.186-1.041-1.301-2.212-1.333-3.693v-5.644c0-.521.048-1.041-.473-1.366v-2.473h5.288v2.473c-.521.325-.472.845-.472 1.366v6.361c0 .276.064.991.861.991.798 0 .863-.715.863-.991v-6.361c-.016-.521.032-1.041-.52-1.366zm11.074 6.995h.406c1.285 0 1.237-.732 1.237-2.034 0-1.317.048-2.049-1.237-2.049h-.406zm-4.344-3.155c0-.521.05-1.042-.471-1.367v-2.473h5.677c1.188 0 2.782-.016 3.758.732 1.594 1.221 1.366 3.45 1.366 3.807v1.106c0 2.652-.879 4.294-4.44 4.294h-1.546c0 .684-.049 1.204.472 1.53v2.472h-5.287v-2.472c.521-.326.471-.846.471-1.368zm16.201 3.155h.406c1.285 0 1.237-.732 1.237-2.034 0-1.317.048-2.049-1.237-2.049h-.406zm-4.344-3.155c0-.521.049-1.042-.471-1.367v-2.473h5.676c1.189 0 2.783-.016 3.758.732 1.595 1.221 1.367 3.45 1.367 3.807v1.106c0 2.652-.879 4.294-4.441 4.294h-1.545c0 .684-.049 1.204.472 1.53v2.472h-5.287v-2.472c.52-.326.471-.846.471-1.368zm11.246 10.101v-2.472c.521-.325.473-.846.473-1.367v-6.262c0-.521.048-1.042-.473-1.367v-2.472h5.288v2.472c-.52.325-.474.846-.474 1.367v7.141h.424c1.107 0 1.09-.667 1.09-1.546v-2.261h3.823v6.767zm11.849-10.101c0-.521.049-1.042-.472-1.367v-2.472h5.286v2.472c-.519.325-.47.846-.47 1.367v6.262c0 .521-.049 1.042.47 1.367v2.472h-5.286v-2.472c.521-.325.472-.846.472-1.367zm16.504 5.058v5.042h-10.443v-2.472c.519-.325.472-.845.472-1.367v-6.262c0-.521.047-1.041-.472-1.366v-2.473h10.443v4.718h-4.002v-.424c0-.943-.131-1.334-1.301-1.334h-.261v2.49h2.75v2.716h-2.75v2.815h.261c1.301 0 1.283-.489 1.301-1.627v-.456zm5.935-3.172h.438c.945 0 1.236-.488 1.236-1.464 0-.895-.291-1.383-1.236-1.383h-.438zm0 4.375c0 .521-.049 1.042.471 1.367v2.472h-5.287v-2.472c.521-.325.472-.846.472-1.367v-6.262c0-.521.049-1.041-.472-1.366v-2.473h6.035c1.074 0 2.424-.016 3.367.554 1.139.666 1.529 1.854 1.529 3.122 0 1.529-.457 2.863-2.082 3.27v.032c1.367.326 1.822.912 1.822 2.327v.796c0 .472 0 1.155.538 1.367v2.472h-4.668c-.18-.764-.295-1.415-.246-3.74 0-1.107-.114-1.661-1.301-1.693h-.178zm13.623-5.888c0-.618-.016-1.48-.861-1.48-.553 0-.846.406-.846.927 0 .277.031.553.26.781.244.261.861.456 1.218.553 1.042.276 2.44.651 3.321 1.236.504.342.879.749 1.072 1.335.229.601.326 1.268.326 1.919v.065c0 2.684-1.187 4.668-5.336 4.668-1.773 0-3.644-.342-5.058-1.463V75.66h4.246c0 .829-.018 1.447.131 1.741a.89.89 0 00.779.455c.586 0 .846-.57.846-1.074 0-1.431-.895-1.545-2.098-1.838-2.637-.651-4.115-1.285-4.115-4.294v-.31c.064-1.496.308-2.244 1.445-3.105.93-.701 2.279-.863 3.58-.863 1.889 0 3.565.374 5.141 1.464v3.286h-4.051zM80.873 43.211h-9.237v-.683c0-1.366.287-3.989-1.833-3.989-1.798 0-1.942 1.689-1.942 3.019v13.694c0 .323.144 2.013 1.942 2.013 2.12 0 1.833-2.624 1.833-4.026v-1.366h-1.655v-6.002h10.892v14.7c-3.02 2.732-7.584 3.343-11.502 3.343-2.768 0-5.931-.215-8.123-2.049-2.84-2.408-2.983-5.211-2.983-8.591V41.558c0-2.732.323-5.392 2.551-7.261 2.229-1.905 5.285-2.408 8.123-2.408 4.205 0 8.555.97 11.934 3.558zm13.212 1.941h.971c2.084 0 2.731-1.079 2.731-3.235 0-1.976-.647-3.055-2.731-3.055h-.971zm0 9.668c0 1.151-.108 2.301 1.042 3.02v5.463H83.445V57.84c1.151-.719 1.042-1.869 1.042-3.02V40.983c0-1.15.109-2.301-1.042-3.019V32.5H96.78c2.372 0 5.356-.036 7.441 1.222 2.515 1.473 3.378 4.098 3.378 6.901 0 3.379-1.006 6.326-4.601 7.224v.073c3.02.718 4.026 2.012 4.026 5.139v1.761c0 1.042 0 2.553 1.186 3.02v5.463H97.895c-.396-1.69-.648-3.127-.539-8.267 0-2.444-.252-3.666-2.875-3.738h-.396zm39.809-2.659v11.142h-23.076V57.84c1.15-.719 1.043-1.869 1.043-3.019V40.983c0-1.15.107-2.301-1.043-3.019V32.5h23.076v10.423h-8.842v-.934c0-2.084-.288-2.948-2.876-2.948h-.575v5.5h6.074v6.002h-6.074v6.219h.575c2.876 0 2.84-1.079 2.876-3.594v-1.007zm25.422 0v11.142H136.24V57.84c1.15-.719 1.043-1.869 1.043-3.019V40.983c0-1.15.107-2.301-1.043-3.019V32.5h23.076v10.423h-8.843v-.934c0-2.084-.287-2.948-2.875-2.948h-.575v5.5h6.074v6.002h-6.074v6.219h.575c2.875 0 2.84-1.079 2.875-3.594v-1.007zm18.298-5.751h.07v-5.427c0-1.15.11-2.301-1.041-3.019V32.5h9.848v5.464c-1.15.718-1.043 1.869-1.043 3.019v22.32h-9.309l-5.714-13.837h-.072v5.355c0 1.15-.108 2.3 1.042 3.019v5.463h-9.56V57.84c1.149-.719 1.043-1.869 1.043-3.019V40.983c0-1.15.106-2.301-1.043-3.019V32.5h10.424zm25.064-4.601c0-1.366-.035-3.271-1.906-3.271-1.219 0-1.867.899-1.867 2.049 0 .611.072 1.222.574 1.725.541.575 1.906 1.007 2.695 1.222 2.301.611 5.391 1.438 7.332 2.733 1.115.754 1.942 1.652 2.373 2.946.502 1.33.719 2.804.719 4.242v.143c0 5.931-2.625 10.316-11.787 10.316-3.92 0-8.053-.755-11.18-3.235v-8.267h9.381c0 1.833-.035 3.199.287 3.846.322.611 1.006 1.007 1.727 1.007 1.293 0 1.869-1.259 1.869-2.373 0-3.163-1.979-3.414-4.639-4.062-5.822-1.438-9.094-2.838-9.094-9.488v-.683c.147-3.307.684-4.96 3.2-6.865 2.048-1.546 5.033-1.905 7.908-1.905 4.17 0 7.871.826 11.359 3.234v7.261h-8.951zM60.136 85.06a.643.643 0 010-1.286h150.679a.643.643 0 010 1.286z" fill="#008153"></path>
  </symbol>
  <symbol xmlns="http://www.w3.org/2000/svg" viewBox="0 0 212.599 92.72" id="cheshire-county-hygiene-services">
    <path d="M8.538 82.317h1.146V90.5H8.538v-3.778H4.536V90.5H3.39v-8.183h1.146v3.412h4.002v-3.412zm2.686 9.329c.087.04.199.077.338.112.137.037.273.053.407.053.433 0 .772-.097 1.016-.29.244-.192.464-.505.662-.938a33.632 33.632 0 01-1.388-3.005 26.314 26.314 0 01-1.069-3.218h1.181c.087.354.192.736.313 1.146a30.422 30.422 0 00.891 2.563c.173.433.355.85.543 1.251.299-.827.559-1.645.78-2.457.22-.81.429-1.645.625-2.502h1.134a46.369 46.369 0 01-.945 3.335 33.899 33.899 0 01-1.122 2.994c-.157.354-.321.66-.49.916a2.733 2.733 0 01-.562.631 2.02 2.02 0 01-.69.366 2.94 2.94 0 01-1.14.101 2.992 2.992 0 01-.526-.113 1.014 1.014 0 01-.159-.058l.201-.887zm10.616-1.759a3.01 3.01 0 01-.549.242 2.78 2.78 0 01-.952.148c-.369 0-.718-.06-1.044-.177a2.274 2.274 0 01-.857-.55 2.654 2.654 0 01-.578-.926c-.142-.37-.213-.811-.213-1.323 0-.448.067-.859.201-1.233s.329-.697.584-.969a2.69 2.69 0 01.939-.638 3.243 3.243 0 011.251-.229c.512 0 .958.037 1.34.111.382.076.703.144.963.207v5.479c0 .946-.244 1.63-.732 2.055-.488.425-1.228.638-2.22.638-.386 0-.75-.031-1.092-.095a6.194 6.194 0 01-.892-.223l.201-.957c.22.087.49.164.809.229.319.068.651.101.998.101.653 0 1.123-.13 1.411-.39.287-.26.431-.672.431-1.24v-.26zm-.011-4.558a3.433 3.433 0 00-.444-.089 5.268 5.268 0 00-.749-.041c-.591 0-1.045.193-1.364.578s-.478.898-.478 1.535c0 .355.045.658.135.91.091.251.213.46.367.625.153.166.331.288.53.366.202.078.408.118.62.118.291 0 .559-.041.803-.124.244-.083.437-.179.579-.289v-3.589zm3.77-2.079c-.197 0-.364-.065-.501-.195s-.207-.305-.207-.526a.687.687 0 01.708-.719c.196 0 .364.064.502.194s.207.306.207.525a.688.688 0 01-.709.721zm.555 7.25h-1.099v-6.14h1.099v6.14zm1.786-3.058c0-.543.079-1.018.236-1.422.157-.406.366-.743.626-1.01a2.56 2.56 0 01.897-.603 2.799 2.799 0 011.039-.201c.827 0 1.46.259 1.901.774.441.516.662 1.301.662 2.355v.183c0 .075-.005.144-.012.206h-4.204c.047.639.232 1.123.555 1.453.323.331.827.497 1.512.497.386 0 .71-.034.974-.101s.462-.131.597-.195l.154.921c-.134.071-.368.147-.703.225a5.043 5.043 0 01-1.14.118c-.536 0-.998-.081-1.388-.242a2.587 2.587 0 01-.962-.668 2.736 2.736 0 01-.562-1.009 4.306 4.306 0 01-.182-1.281zm4.216-.603c.007-.496-.116-.903-.372-1.222-.256-.318-.609-.478-1.058-.478-.251 0-.474.049-.666.148a1.535 1.535 0 00-.49.384 1.753 1.753 0 00-.313.542 2.703 2.703 0 00-.147.625h3.046zm2.954-2.302c.252-.063.587-.13 1.004-.201s.897-.105 1.441-.105c.488 0 .893.068 1.217.206.322.138.58.331.773.579.194.248.328.544.408.891.078.347.118.729.118 1.146V90.5h-1.098v-3.212c0-.377-.026-.7-.077-.967a1.638 1.638 0 00-.254-.649.997.997 0 00-.473-.361 2.075 2.075 0 00-.732-.112 6.585 6.585 0 00-.726.041 3.92 3.92 0 00-.307.041l-.194.036V90.5h-1.1v-5.963zm6.694 2.905c0-.543.078-1.018.236-1.422.157-.406.366-.743.625-1.01a2.56 2.56 0 01.897-.603 2.806 2.806 0 011.039-.201c.827 0 1.461.259 1.902.774.441.516.661 1.301.661 2.355v.183c0 .075-.004.144-.011.206H42.95c.046.639.231 1.123.555 1.453.322.331.826.497 1.512.497.385 0 .71-.034.974-.101.263-.067.462-.131.597-.195l.153.921c-.135.071-.368.147-.703.225s-.715.118-1.14.118c-.535 0-.997-.081-1.388-.242a2.595 2.595 0 01-.962-.668 2.72 2.72 0 01-.561-1.009 4.273 4.273 0 01-.183-1.281zm4.216-.603c.007-.496-.117-.903-.373-1.222-.256-.318-.609-.478-1.057-.478-.251 0-.474.049-.667.148a1.546 1.546 0 00-.49.384 1.73 1.73 0 00-.312.542 2.604 2.604 0 00-.147.625h3.046zm7.428 2.847c1.196 0 1.794-.409 1.794-1.228 0-.252-.052-.467-.159-.645s-.25-.331-.432-.46a3.018 3.018 0 00-.62-.336 20.001 20.001 0 00-.738-.284 7.473 7.473 0 01-.85-.348 2.938 2.938 0 01-.697-.46 1.94 1.94 0 01-.467-.632c-.114-.243-.171-.539-.171-.885 0-.717.244-1.275.732-1.677.487-.401 1.161-.603 2.019-.603.496 0 .947.053 1.353.161.405.105.703.222.891.348l-.365.932c-.165-.102-.412-.203-.738-.301a3.946 3.946 0 00-1.14-.148c-.221 0-.425.024-.614.072a1.576 1.576 0 00-.495.212 1.07 1.07 0 00-.338.361 1.028 1.028 0 00-.124.513c0 .221.043.406.13.555.086.15.209.282.366.396.157.114.34.219.549.313.208.095.438.188.691.283.354.142.68.285.974.426.295.142.55.311.768.508.217.197.384.431.502.703.118.271.178.6.178.985 0 .716-.262 1.268-.786 1.654-.524.385-1.262.578-2.214.578-.323 0-.62-.022-.893-.065a6.617 6.617 0 01-.726-.154 4.29 4.29 0 01-.909-.359l.343-.946c.181.103.457.217.826.343.371.125.824.188 1.36.188zm4.365-2.244c0-.543.078-1.018.236-1.422.157-.406.366-.743.625-1.01s.559-.468.898-.603a2.799 2.799 0 011.039-.201c.827 0 1.46.259 1.901.774.441.516.662 1.301.662 2.355v.183c0 .075-.005.144-.012.206h-4.204c.047.639.231 1.123.555 1.453.322.331.826.497 1.512.497.385 0 .71-.034.974-.101s.462-.131.597-.195l.153.921c-.134.071-.368.147-.702.225a5.043 5.043 0 01-1.14.118c-.535 0-.998-.081-1.388-.242a2.595 2.595 0 01-.962-.668 2.72 2.72 0 01-.561-1.009 4.273 4.273 0 01-.183-1.281zm4.216-.603c.007-.496-.116-.903-.372-1.222-.257-.318-.608-.478-1.058-.478-.251 0-.474.049-.667.148a1.531 1.531 0 00-.489.384 1.714 1.714 0 00-.313.542 2.705 2.705 0 00-.148.625h3.047zm5.222-2.609a4.592 4.592 0 01.684.065c.118.02.227.04.324.059.098.021.171.037.219.053l-.189.957c-.086-.031-.229-.069-.431-.113s-.458-.064-.774-.064c-.205 0-.407.021-.608.064s-.333.074-.395.089v5.16h-1.099v-5.88c.26-.095.582-.183.969-.266.387-.083.82-.124 1.3-.124zm7.756.13a31.371 31.371 0 01-1.081 3.307c-.414 1.055-.813 2-1.199 2.833h-.992a51.07 51.07 0 01-1.198-2.833 30.914 30.914 0 01-1.08-3.307h1.18c.094.385.207.797.337 1.234a38.44 38.44 0 00.855 2.544c.15.402.292.759.425 1.075.134-.315.275-.672.426-1.075.149-.402.297-.816.442-1.245.146-.43.284-.863.414-1.299.13-.437.242-.849.336-1.234h1.135zm1.968-1.11a.688.688 0 01-.709-.721c0-.22.068-.395.207-.525a.704.704 0 01.502-.194c.196 0 .364.064.502.194s.206.306.206.525c0 .221-.068.396-.206.526a.708.708 0 01-.502.195zm.555 7.25h-1.099v-6.14h1.099v6.14zm4.791.142c-.496 0-.931-.079-1.305-.235a2.64 2.64 0 01-.945-.662 2.764 2.764 0 01-.572-1.009 4.194 4.194 0 01-.188-1.293c0-.472.068-.905.206-1.299.138-.394.333-.734.585-1.022.251-.287.561-.512.926-.672a3.009 3.009 0 011.222-.243c.276 0 .551.024.828.071.275.048.539.123.791.225l-.247.932a2.63 2.63 0 00-.574-.188 3.24 3.24 0 00-.69-.071c-.614 0-1.084.194-1.412.579-.326.385-.49.949-.49 1.688 0 .331.038.634.113.91.074.275.192.512.354.708.161.197.368.348.619.454.252.107.56.16.921.16.291 0 .555-.028.791-.083.237-.054.421-.114.556-.177l.154.921c-.063.04-.154.077-.272.113a3.739 3.739 0 01-.401.094 7.888 7.888 0 01-.478.071 4.987 4.987 0 01-.492.028zm2.662-3.2c0-.543.078-1.018.236-1.422.157-.406.366-.743.626-1.01.259-.268.559-.468.898-.603a2.799 2.799 0 011.039-.201c.827 0 1.46.259 1.901.774.441.516.662 1.301.662 2.355v.183c0 .075-.004.144-.012.206h-4.204c.047.639.231 1.123.555 1.453.322.331.826.497 1.512.497.385 0 .71-.034.974-.101s.462-.131.597-.195l.153.921c-.135.071-.368.147-.703.225a5.043 5.043 0 01-1.14.118c-.535 0-.997-.081-1.388-.242a2.595 2.595 0 01-.962-.668 2.72 2.72 0 01-.561-1.009 4.273 4.273 0 01-.183-1.281zm4.216-.603c.007-.496-.116-.903-.372-1.222-.257-.318-.609-.478-1.058-.478-.251 0-.474.049-.667.148a1.535 1.535 0 00-.49.384 1.714 1.714 0 00-.313.542 2.653 2.653 0 00-.147.625h3.047zm4.381 2.87c.448 0 .78-.059.997-.176.217-.119.325-.307.325-.567a.752.752 0 00-.319-.638c-.213-.158-.563-.335-1.051-.532a15.752 15.752 0 01-.679-.29 2.37 2.37 0 01-.562-.348 1.503 1.503 0 01-.378-.483 1.554 1.554 0 01-.141-.697c0-.543.201-.974.602-1.293.402-.318.948-.478 1.641-.478.173 0 .347.01.52.03.173.02.334.043.484.071.148.027.281.057.396.088.113.031.202.06.266.083l-.202.944a2.847 2.847 0 00-.555-.194 3.578 3.578 0 00-.91-.101c-.307 0-.575.061-.803.184a.608.608 0 00-.343.573c0 .134.027.251.078.354.051.102.13.194.236.277.106.083.238.16.396.23.156.071.346.146.566.225.291.109.551.218.779.324.229.106.423.23.585.373.161.141.285.312.372.513.086.2.13.447.13.738 0 .567-.211.996-.631 1.287-.423.292-1.022.437-1.801.437-.543 0-.969-.045-1.276-.136a6.212 6.212 0 01-.625-.207l.2-.944c.126.048.328.118.603.212.277.095.644.141 1.1.141z" fill="#E27866"></path>
    <g fill="#666">
      <path d="M10.431 75.756c-1.557 0-2.976-.255-4.255-.768a9.03 9.03 0 01-3.295-2.24c-.917-.98-1.627-2.191-2.128-3.632C.251 67.678 0 66.03 0 64.174c0-1.856.283-3.503.848-4.943.565-1.44 1.328-2.65 2.288-3.632a9.692 9.692 0 013.36-2.239 10.923 10.923 0 014.095-.769c.917 0 1.743.064 2.479.192s1.375.278 1.92.448c.543.171.986.341 1.328.512.341.171.576.299.704.384l-.896 2.559a5.123 5.123 0 00-.832-.416 17.42 17.42 0 00-1.232-.448 11.226 11.226 0 00-1.504-.368 9.45 9.45 0 00-1.647-.144c-1.174 0-2.229.203-3.168.608a6.561 6.561 0 00-2.4 1.76c-.661.768-1.167 1.7-1.52 2.799-.352 1.098-.527 2.33-.527 3.695 0 1.322.154 2.528.463 3.615.309 1.088.773 2.021 1.392 2.8a6.255 6.255 0 002.32 1.808c.928.427 2.01.639 3.248.639 1.429 0 2.612-.148 3.551-.447.938-.298 1.643-.565 2.112-.8l.8 2.559c-.149.107-.416.24-.8.4a10.78 10.78 0 01-1.44.464c-.576.148-1.248.277-2.016.384-.768.109-1.6.162-2.495.162zm8.481-.48V50.96l2.976-.512v8.51a10.069 10.069 0 011.775-.496 10.22 10.22 0 011.872-.176c1.322 0 2.42.186 3.295.56.875.373 1.573.896 2.096 1.567.521.672.89 1.477 1.104 2.416.213.939.319 1.973.319 3.104v9.343h-2.976v-8.703c0-1.024-.069-1.898-.208-2.624-.139-.725-.368-1.312-.688-1.759a2.735 2.735 0 00-1.28-.977c-.534-.203-1.195-.304-1.983-.304-.32 0-.652.022-.993.065-.341.042-.667.091-.976.143-.31.054-.587.112-.832.177a4.81 4.81 0 00-.527.16v13.822h-2.974zm15.713-8.286c0-1.472.212-2.757.639-3.855.427-1.098.992-2.01 1.696-2.736a6.873 6.873 0 012.432-1.631 7.588 7.588 0 012.815-.544c2.24 0 3.957.699 5.152 2.095 1.194 1.397 1.792 3.525 1.792 6.384v.496c0 .203-.011.39-.032.56h-11.39c.127 1.728.629 3.04 1.504 3.936.874.896 2.239 1.343 4.095 1.343 1.045 0 1.925-.09 2.64-.271.714-.181 1.252-.357 1.615-.528l.416 2.496c-.363.193-.997.395-1.904.608-.906.213-1.935.32-3.087.32-1.451 0-2.704-.219-3.759-.656-1.056-.437-1.925-1.04-2.607-1.808-.683-.769-1.189-1.68-1.52-2.736-.332-1.057-.497-2.214-.497-3.473zm11.422-1.632c.021-1.344-.315-2.448-1.008-3.312-.693-.863-1.648-1.296-2.864-1.296-.683 0-1.285.133-1.808.4a4.262 4.262 0 00-1.327 1.041 4.762 4.762 0 00-.848 1.471 7.25 7.25 0 00-.4 1.696h8.255zm9.483 7.774c1.216 0 2.117-.16 2.704-.48.586-.32.88-.832.88-1.535 0-.726-.288-1.301-.864-1.728-.577-.427-1.525-.906-2.848-1.44a41.396 41.396 0 01-1.84-.784 6.446 6.446 0 01-1.519-.944 4.094 4.094 0 01-1.024-1.312c-.256-.511-.384-1.14-.384-1.888 0-1.471.543-2.639 1.631-3.503 1.088-.863 2.57-1.295 4.447-1.295.469 0 .938.027 1.408.08.469.054.907.118 1.312.192.405.075.762.156 1.072.24.309.085.549.16.72.224l-.544 2.56c-.319-.17-.821-.346-1.504-.527-.683-.182-1.504-.273-2.463-.273-.832 0-1.557.166-2.175.496-.619.332-.928.848-.928 1.552 0 .363.069.683.208.959.139.277.352.528.641.752.288.225.644.432 1.071.625.427.192.938.394 1.536.607a32.01 32.01 0 012.111.88 6.618 6.618 0 011.584 1.008c.437.384.772.848 1.008 1.392.234.543.352 1.21.352 2 0 1.535-.571 2.699-1.712 3.487-1.141.789-2.767 1.184-4.879 1.184-1.472 0-2.624-.123-3.456-.368-.832-.245-1.397-.432-1.696-.561l.544-2.559c.341.128.885.32 1.632.576.746.256 1.737.383 2.975.383zm8.696 2.144V50.96l2.976-.512v8.51a10.069 10.069 0 011.775-.496 10.22 10.22 0 011.872-.176c1.322 0 2.42.186 3.295.56.875.373 1.573.896 2.096 1.567.521.672.89 1.477 1.104 2.416.213.939.319 1.973.319 3.104v9.343h-2.976v-8.703c0-1.024-.069-1.898-.208-2.624-.139-.725-.368-1.312-.688-1.759a2.735 2.735 0 00-1.28-.977c-.534-.203-1.195-.304-1.983-.304-.32 0-.651.022-.993.065-.341.042-.667.091-.976.143-.31.054-.587.112-.832.177a4.81 4.81 0 00-.527.16v13.822h-2.974zm18.016-19.645c-.534 0-.987-.176-1.36-.528-.374-.352-.56-.827-.56-1.423 0-.598.186-1.072.56-1.424a1.904 1.904 0 011.36-.528c.533 0 .986.176 1.36.528.373.352.56.826.56 1.424 0 .597-.187 1.072-.56 1.423a1.906 1.906 0 01-1.36.528zm1.504 19.645H80.77V58.639h2.976v16.637zm9.499-16.988c.256 0 .549.015.88.047s.656.075.977.128c.319.053.613.106.879.16.266.054.464.102.592.144l-.512 2.592c-.235-.085-.624-.187-1.167-.304-.544-.117-1.244-.176-2.096-.176-.556 0-1.104.059-1.648.176-.544.118-.901.198-1.071.24v13.981h-2.976V59.343c.704-.255 1.579-.496 2.624-.72s2.217-.335 3.518-.335zm3.372 8.702c0-1.472.213-2.757.64-3.855.426-1.098.992-2.01 1.695-2.736a6.873 6.873 0 012.432-1.631 7.588 7.588 0 012.815-.544c2.24 0 3.957.699 5.151 2.095 1.195 1.397 1.792 3.525 1.792 6.384v.496c0 .203-.011.39-.032.56H99.72c.127 1.728.629 3.04 1.504 3.936.874.896 2.239 1.343 4.095 1.343 1.045 0 1.924-.09 2.64-.271.714-.181 1.252-.357 1.615-.528l.416 2.496c-.363.193-.998.395-1.904.608s-1.935.32-3.087.32c-1.451 0-2.704-.219-3.759-.656-1.057-.437-1.926-1.04-2.608-1.808-.683-.769-1.189-1.68-1.52-2.736-.33-1.057-.495-2.214-.495-3.473zm11.423-1.632c.02-1.344-.316-2.448-1.009-3.312-.693-.863-1.648-1.296-2.864-1.296-.683 0-1.285.133-1.808.4a4.262 4.262 0 00-1.327 1.041 4.784 4.784 0 00-.849 1.471 7.25 7.25 0 00-.4 1.696h8.257zm21.307 10.398c-1.557 0-2.975-.255-4.255-.768a9.058 9.058 0 01-3.296-2.24c-.917-.98-1.627-2.191-2.127-3.632-.502-1.439-.752-3.087-.752-4.942 0-1.856.282-3.503.848-4.943.564-1.44 1.328-2.65 2.287-3.632a9.701 9.701 0 013.36-2.239 10.92 10.92 0 014.095-.769 14.554 14.554 0 014.399.64c.544.171.986.341 1.328.512.341.171.575.299.704.384l-.896 2.559a5.123 5.123 0 00-.832-.416 17.383 17.383 0 00-1.231-.448c-.459-.149-.96-.271-1.504-.368a9.46 9.46 0 00-1.647-.144c-1.174 0-2.229.203-3.168.608a6.55 6.55 0 00-2.399 1.76c-.661.768-1.167 1.7-1.521 2.799-.352 1.098-.527 2.33-.527 3.695 0 1.322.154 2.528.465 3.615.309 1.088.772 2.021 1.391 2.8.619.779 1.393 1.381 2.32 1.808s2.01.639 3.248.639c1.428 0 2.612-.148 3.551-.447.938-.298 1.643-.565 2.111-.8l.801 2.559c-.15.107-.417.24-.801.4a10.76 10.76 0 01-1.439.464c-.576.148-1.248.277-2.016.384-.769.109-1.601.162-2.497.162zm22.812-8.798c0 1.323-.192 2.518-.576 3.583-.385 1.066-.923 1.983-1.616 2.752a7.108 7.108 0 01-2.479 1.775c-.961.416-2.006.624-3.136.624-1.132 0-2.176-.208-3.136-.624s-1.787-1.008-2.479-1.775c-.693-.769-1.232-1.686-1.616-2.752-.384-1.066-.575-2.26-.575-3.583 0-1.3.191-2.49.575-3.567s.923-2 1.616-2.768c.692-.768 1.52-1.359 2.479-1.775s2.004-.624 3.136-.624c1.13 0 2.175.208 3.136.624a7.13 7.13 0 012.479 1.775c.693.769 1.231 1.691 1.616 2.768.384 1.077.576 2.266.576 3.567zm-3.103 0c0-1.877-.422-3.365-1.265-4.463-.843-1.099-1.989-1.648-3.438-1.648-1.451 0-2.598.549-3.44 1.648-.843 1.098-1.264 2.586-1.264 4.463 0 1.877.421 3.365 1.264 4.463.843 1.099 1.989 1.648 3.44 1.648 1.449 0 2.596-.549 3.438-1.648.843-1.099 1.265-2.586 1.265-4.463zm18.818 7.838c-.684.171-1.583.352-2.702.543-1.121.192-2.416.288-3.889.288-1.278 0-2.356-.187-3.231-.56-.875-.373-1.578-.901-2.111-1.583-.533-.682-.917-1.488-1.151-2.416-.235-.928-.353-1.957-.353-3.087v-9.342h2.977v8.702c0 2.027.318 3.477.959 4.352.641.875 1.717 1.312 3.232 1.312.319 0 .648-.01.99-.032.342-.021.661-.048.961-.08.299-.032.571-.065.816-.096a2.39 2.39 0 00.527-.112V58.639h2.975v16.157zm3.356-15.677c.682-.17 1.588-.352 2.721-.543 1.128-.192 2.432-.288 3.902-.288 1.322 0 2.42.186 3.296.56.874.373 1.572.896 2.097 1.567.521.672.89 1.477 1.103 2.416.213.939.319 1.973.319 3.104v9.343h-2.976v-8.703c0-1.024-.069-1.898-.208-2.624-.139-.725-.367-1.312-.687-1.759a2.745 2.745 0 00-1.28-.977c-.534-.203-1.195-.304-1.983-.304-.319 0-.651.012-.993.032-.341.022-.666.049-.975.08-.31.032-.587.069-.832.112-.245.042-.423.075-.529.096v14.046h-2.975V59.119zm19.43-.48h6.304v2.496h-6.304v7.678c0 .832.064 1.52.194 2.064.125.543.319.971.573 1.28.257.31.578.528.962.656.384.127.832.192 1.343.192.896 0 1.616-.102 2.159-.304.545-.203.923-.347 1.136-.433l.577 2.463c-.3.15-.822.336-1.567.561-.748.224-1.6.335-2.561.335-1.131 0-2.064-.144-2.8-.432-.735-.288-1.327-.72-1.775-1.295-.447-.577-.763-1.285-.943-2.128s-.272-1.818-.272-2.928V54l2.975-.512v5.151z"></path>
      <path d="M197.882 78.38c.235.106.539.208.913.304.37.096.74.145 1.103.145 1.173 0 2.09-.262 2.751-.785s1.258-1.371 1.792-2.543a90.996 90.996 0 01-3.759-8.143 70.495 70.495 0 01-2.896-8.718h3.199c.235.959.518 1.995.849 3.104a81.467 81.467 0 002.415 6.943c.47 1.173.962 2.304 1.473 3.391.812-2.24 1.515-4.458 2.111-6.655s1.162-4.458 1.696-6.783h3.07a128.13 128.13 0 01-2.558 9.039 92.523 92.523 0 01-3.041 8.11c-.426.96-.868 1.786-1.327 2.479-.46.693-.967 1.265-1.521 1.712a5.555 5.555 0 01-1.87.992c-.693.213-1.478.32-2.352.32-.235 0-.48-.016-.735-.048a8.886 8.886 0 01-.753-.127 7.562 7.562 0 01-.673-.177 3.173 3.173 0 01-.432-.16l.545-2.4z"></path>
    </g>
    <path fill="#E27866" d="M194.373 13.842c-.004-.026-.004-.041-.022-.103-.059-.068.08-.003-.213-.343l.006-.005a.521.521 0 00-.053-.05.555.555 0 00-.225-.131.728.728 0 00-.315-.063l-.056.007a.743.743 0 00-.137.02c-.285.048-.288.099-.611.201-2.043.763-9.756 3.797-19.924 5.773a116.41 116.41 0 01-7.424-12.7 118.095 118.095 0 01-2.074-4.338c-.237-.518-.418-.921-.547-1.205-.064-.144-.117-.253-.161-.344a.793.793 0 00-.08-.14c-.017-.03-.032-.061-.084-.12-.083-.033-.052-.221-.629-.301-.601.08-.571.267-.651.301-.218.304-.2.357-.371.701-.92 2.02-4.226 9.593-9.998 18.146a117.077 117.077 0 01-14.092-3.688 125.683 125.683 0 01-4.557-1.603c-.543-.204-.971-.368-1.278-.481-.339-.106-.327-.16-.652-.208l.001-.002c-.033-.005-.08-.013-.138-.015l-.017-.002a.638.638 0 00-.303.057c-.027.011-.056.022-.084.036-.08.045-.146.096-.201.148a.587.587 0 00-.15.2.725.725 0 00-.094.337c-.003.053 0 .053-.003.057.058.484.107.421.228.805.795 2.128 4.059 10.402 6.02 21.208 1.513 6.109 4.108 11.657 9.424 14.03 1.713.815 3.728 1.246 5.828 1.246 3.774 0 7.844-1.404 11.079-4.424 3.219 3.015 7.292 4.423 11.073 4.423 2.102 0 4.111-.428 5.85-1.252 5.294-2.362 7.892-7.914 9.394-13.97 1.128-6.223 2.675-11.578 3.944-15.423.634-1.924 1.194-3.47 1.604-4.556.199-.544.362-.972.48-1.283.095-.314.148-.326.196-.589a.755.755 0 00.029-.213v-.008a.514.514 0 00-.012-.136zm-22.184 7.319c2.252 3.735 3.81 7.538 3.803 11.073 0 1.362-.226 2.688-.726 3.984-1.431 4.093-5.883 7.922-11.504 8.574 2.451-3.056 3.599-6.725 3.599-10.144 0-2.102-.429-4.116-1.258-5.853-.716-1.608-1.754-2.942-2.986-4.098 2.369-1.678 5.383-2.851 8.718-3.678v.001l.229-.044c.041.063.083.123.125.185zm-20.63-.185l.196.037c3.354.829 6.382 2.004 8.757 3.687-1.236 1.16-2.28 2.5-3.003 4.119-.818 1.717-1.247 3.728-1.247 5.829 0 3.419 1.145 7.08 3.605 10.146-5.626-.651-10.077-4.478-11.501-8.551a10.971 10.971 0 01-.735-4.004c-.007-3.549 1.56-7.366 3.827-11.112.035-.052.066-.101.101-.151zm13.045 8.511c.722 1.507 1.105 3.284 1.105 5.162 0 3.341-1.238 6.967-3.897 9.862-2.669-2.906-3.9-6.525-3.9-9.864 0-1.874.389-3.651 1.096-5.138.645-1.467 1.619-2.697 2.807-3.768 1.18 1.065 2.151 2.289 2.789 3.746zm-2.801-26.692l.01-.021c1.308 2.876 4.404 9.448 9.262 16.744-3.44.887-6.683 2.152-9.26 4.077-2.575-1.923-5.822-3.188-9.27-4.076a118.254 118.254 0 007.154-12.328 123.241 123.241 0 002.104-4.396zm-16.205 45.733c-4.576-2.008-7.044-6.975-8.501-12.874-1.126-6.22-2.693-11.645-3.979-15.543-.645-1.95-1.217-3.52-1.627-4.619l-.051-.139c2.952 1.108 9.796 3.569 18.39 5.292-2.235 3.79-3.846 7.702-3.852 11.593 0 1.543.261 3.083.838 4.575 1.685 4.729 6.654 8.927 12.955 9.625-2.749 2.173-6.009 3.183-9.036 3.183-1.877-.001-3.654-.385-5.137-1.093zm40.919-12.826c-1.442 5.849-3.916 10.816-8.468 12.813-1.51.719-3.287 1.106-5.161 1.106-3.033 0-6.297-1.014-9.038-3.185 6.3-.695 11.275-4.893 12.967-9.645.567-1.476.827-3.015.827-4.558-.007-3.907-1.627-7.827-3.85-11.592a118.778 118.778 0 0013.632-3.614 124.696 124.696 0 004.618-1.626l.143-.052c-1.193 3.173-3.95 10.843-5.67 20.353z"></path>
  </symbol>
  <symbol xmlns="http://www.w3.org/2000/svg" viewBox="0 0 170.079 92.49" id="space-cube">
    <path d="M5.906 80.085c-1.513 0-3.875-.284-5.482-.708v-3.451c1.466.378 3.402.709 5.956.709 3.26 0 4.678-1.891 4.678-5.813 0-4.584-1.276-5.907-3.829-6.427C1.984 63.308 0 61.039 0 55.462c0-6.759 3.875-9.122 9.309-9.122 1.561 0 3.64.331 5.011.709v3.45c-1.606-.378-3.829-.708-5.482-.708-2.364 0-4.632 1.418-4.632 5.151 0 3.828.662 4.915 3.639 5.529 4.537.945 7.42 2.931 7.42 9.877-.001 7.847-3.734 9.737-9.359 9.737zm12.936 7.704V56.124h3.309l.377 2.032c1.465-1.512 3.355-2.363 5.578-2.363 5.528 0 7.466 3.592 7.466 10.633 0 10.35-2.551 13.659-10.066 13.659-1.088 0-1.938-.095-2.647-.189v7.893h-4.017zm4.017-24.577v13.281c.709.095 1.702.189 3.121.189 4.488 0 5.482-3.261 5.482-9.783 0-6.002-1.088-7.704-4.112-7.704-2.646.001-4.491 2.317-4.491 4.017zm32.504 16.543c-.899 0-2.837-.378-3.546-2.316-1.181 1.702-3.072 2.647-6.238 2.647-3.45 0-7.042-1.135-7.042-6.995 0-5.104 3.167-7.893 8.413-7.893h3.732v-2.553c0-1.985-1.182-3.45-3.544-3.45-2.694 0-4.491.331-6.853.992v-3.45c1.75-.52 4.064-.945 6.379-.945 6.146 0 8.036 2.41 8.036 7.798v11.342c0 .945.567 1.512 2.079 1.512v3.309h-1.416zm-4.68-6.38v-4.963h-3.969c-2.032 0-4.065 1.277-4.065 4.396 0 2.931 1.371 3.875 3.876 3.875 3.26 0 4.158-2.363 4.158-3.308zm22.031 5.955c-1.514.425-3.45.756-5.152.756-5.436 0-8.271-1.796-8.271-12.619 0-8.459 2.552-11.673 8.223-11.673 1.56 0 3.829.378 5.2.708v3.497c-1.75-.378-3.073-.662-5.483-.662-2.741 0-3.827 2.08-3.827 9.075 0 7.089 1.465 8.129 3.827 8.129 2.552 0 4.112-.425 5.483-.708v3.497zm6.83-9.973c.141 6.238 1.654 7.325 4.017 7.325 2.599 0 4.914-.426 6.333-.756v3.403c-1.512.425-4.161.756-5.861.756-5.436 0-8.507-1.607-8.507-12.146 0-8.744 2.929-12.146 8.602-12.146 5.434 0 7.608 3.78 7.608 10.019v3.545H79.544zm.046-3.213h8.223v-1.276c0-3.592-.991-5.719-3.779-5.719-3.025-.001-4.207 1.559-4.444 6.995zm30.258 13.137c-1.039.284-3.688.804-5.246.804-6.758 0-9.545-3.309-9.545-17.392 0-13.942 3.211-16.353 10.11-16.353 1.515 0 3.403.331 4.681.662V50.5c-1.561-.378-3.688-.614-5.53-.614-3.45 0-5.058 1.702-5.058 13.139 0 11.909 1.704 13.516 5.104 13.516 1.938 0 4.303-.425 5.484-.708v3.448zm15.626.474l-.332-1.938c-1.322 1.464-3.025 2.269-5.434 2.269-5.249 0-6.807-2.789-6.807-8.554V56.124h4.019v15.879c0 2.978.52 4.679 3.399 4.679 2.601 0 4.351-2.222 4.443-3.875V56.124h4.018v23.631h-3.306zm14.794.33c-3.403 0-4.915-.331-6.665-.567V46.672h4.017v11.201c1.418-1.324 3.167-2.08 5.249-2.08 5.526 0 7.465 3.592 7.465 10.633-.001 10.351-2.552 13.659-10.066 13.659zm-2.649-16.873v13.281c.71.095 1.702.189 3.122.189 4.488 0 5.48-3.261 5.48-9.783 0-6.002-1.089-7.704-4.112-7.704-2.645.001-4.49 2.317-4.49 4.017zm20.269 6.145c.139 6.238 1.653 7.325 4.015 7.325 2.601 0 4.915-.426 6.334-.756v3.403c-1.512.425-4.16.756-5.86.756-5.434 0-8.507-1.607-8.507-12.146 0-8.744 2.93-12.146 8.604-12.146 5.434 0 7.606 3.78 7.606 10.019v3.545h-12.192zm.046-3.213h8.223v-1.276c0-3.592-.992-5.719-3.78-5.719-3.024-.001-4.208 1.559-4.443 6.995z" fill="#39156E"></path>
    <path fill="#E06C58" d="M57.777 24.08l-.004 19.372 16.389-9.464.387-.676.003-18.911z"></path>
    <path fill="#EB9F89" d="M56.226 24.08l.006 19.372-16.391-9.464-.388-.676-.001-18.911z"></path>
    <path fill="#F6D0C1" d="M56.998 22.73l16.779-9.681-16.391-9.463-.777.003-16.38 9.453z"></path>
    <path fill="#39156E" d="M76.889 11.252L57.777.21a1.538 1.538 0 00-1.554 0L37.1 11.25a1.562 1.562 0 00-.773 1.349v22.065c0 .557.296 1.069.773 1.349L56.214 47.05a1.55 1.55 0 001.558 0l19.114-11.037c.482-.279.777-.794.777-1.349l.003-22.063a1.554 1.554 0 00-.777-1.349zM56.216 43.453l-16.384-9.461 13.575-7.838a.388.388 0 00.144-.532.394.394 0 00-.535-.142L39.44 33.318V14.396l16.781 9.684-.005 19.373zm.782-20.723l-16.78-9.682L56.615 3.58v15.68a.387.387 0 10.776-.002V3.58l16.385 9.471-16.778 9.679zm.779 1.35l16.774-9.679-.002 18.912-13.573-7.834a.386.386 0 00-.527.144.385.385 0 00.142.531l13.57 7.836-16.389 9.463.005-19.373z"></path>
    <path d="M100.002 92.423l-.361-1.695h-1.87l-.374 1.695h-.851l1.617-6.706h1.101l1.591 6.706h-.853zm-1.301-6.073l-.776 3.659h1.562l-.786-3.659zm8.995 3.161l1.31 2.912h-.917l-1.229-2.778h-.853v2.778h-.831v-6.706s.822-.067 1.619-.067c1.453 0 1.857.776 1.857 1.955.001.986-.276 1.638-.956 1.906zm-.789-3.171c-.524 0-.899.058-.899.058v2.548h.899c.538 0 .894-.229.894-1.273 0-.931-.214-1.333-.894-1.333zm9.162 5.987c-.21.058-.748.163-1.063.163-1.368 0-1.935-.671-1.935-3.525 0-2.826.651-3.315 2.05-3.315.309 0 .689.067.948.134v.709a5.178 5.178 0 00-1.118-.125c-.702 0-1.026.345-1.026 2.663 0 2.414.346 2.74 1.036 2.74.393 0 .87-.086 1.108-.143v.699zm7.229.096v-3.085h-1.973v3.085h-.834v-6.706h.834v2.913h1.973v-2.913h.834v6.706h-.834zm5.254 0v-.699h.671v-5.307h-.671v-.7h2.177v.7h-.674v5.307h.674v.699h-2.177zm8.531-5.977v5.977h-.834v-5.977h-1.475v-.729h3.784v.729h-1.475zm5.738 5.977v-6.706h3.141v.7h-2.309v2.193h2.07v.7h-2.07v2.413h2.309v.699h-3.141zm10.426-.096c-.21.058-.747.163-1.06.163-1.373 0-1.938-.671-1.938-3.525 0-2.826.652-3.315 2.05-3.315.309 0 .689.067.948.134v.709a5.173 5.173 0 00-1.119-.125c-.7 0-1.025.345-1.025 2.663 0 2.414.346 2.74 1.035 2.74a5.41 5.41 0 001.109-.143v.699zm6.362-5.881v5.977h-.834v-5.977H157.3v-.729h3.783v.729h-1.474zm6.729 6.044c-.306 0-.785-.058-1.111-.144v-.7c.3.077.692.144 1.208.144.662 0 .949-.383.949-1.178 0-.929-.261-1.197-.776-1.302-1.062-.222-1.468-.681-1.468-1.812 0-1.369.788-1.849 1.889-1.849.315 0 .738.067 1.018.143v.7a5.528 5.528 0 00-1.113-.144c-.479 0-.937.288-.937 1.044 0 .776.133.997.734 1.121.919.191 1.506.594 1.506 2.002-.001 1.592-.76 1.975-1.899 1.975z" fill="#E06C58"></path>
  </symbol>
  <symbol xmlns="http://www.w3.org/2000/svg" viewBox="0 0 147.337 113.385" id="james-and-sons">
    <path d="M3.398 43.188v-5.945h2.244c.461 0 .822.016 1.223.277.398.27.626.685.626 1.17 0 .676-.398 1.179-1.051 1.333v.019c.736.155 1.229.746 1.229 1.508 0 .506-.17.945-.569 1.258-.453.357-.92.381-1.467.381H3.398zm1.899-3.397c.372 0 .779.009 1.084-.226.244-.176.371-.493.371-.778 0-.357-.137-.608-.443-.791-.259-.146-.525-.146-.82-.146H4.143v1.94h1.154zm.304 2.765c.327 0 .694-.034.954-.243.25-.188.37-.475.37-.797 0-.356-.155-.71-.431-.928-.285-.226-.659-.226-.998-.226H4.143v2.193h1.458zm9.649-1.551c0 .589-.035 1.135-.437 1.612-.397.477-.996.659-1.602.659-.58 0-1.198-.124-1.596-.572-.435-.484-.468-1.084-.468-1.699v-3.762h.745v3.762c0 .355.01.841.225 1.151.244.357.748.461 1.153.461.381 0 .815-.122 1.066-.425.288-.339.288-.781.288-1.188v-3.762h.624v3.763zm3.814 2.183v-5.945h.745v5.945h-.745zm8.081 0h-3.512v-5.945h.747v5.286h2.765v.659zm3.225-5.945h1.882c.846 0 1.482.172 2.042.84.516.598.723 1.343.723 2.114 0 .729-.192 1.448-.614 2.046-.479.668-1.095.945-1.91.945H30.37v-5.945zm1.836 5.313c.687 0 1.231-.155 1.619-.754.299-.45.436-1.064.436-1.604 0-.605-.156-1.238-.546-1.725-.407-.511-.884-.606-1.509-.606h-1.094v4.689h1.094zm6.294.632v-5.945h.745v5.945H38.5zm8.912 0h-.729l-3.026-5.185v5.185h-.621v-5.945h.933l2.815 4.846v-4.846h.628v5.945zm8.268.044h-.458l-.201-.737c-.371.545-.996.781-1.643.781-.802 0-1.387-.283-1.858-.919-.45-.615-.622-1.327-.622-2.081 0-1.56.813-3.121 2.572-3.121 1.136 0 1.872.643 2.149 1.708l-.701.173c-.149-.745-.723-1.257-1.499-1.257-1.345 0-1.718 1.369-1.718 2.463 0 .511.095 1.118.338 1.576.268.503.799.851 1.387.851.919 0 1.492-.625 1.492-1.526v-.329h-1.481v-.624h2.243v3.042zm12.426-1.898c-.276 1.127-.946 1.942-2.201 1.942-1.714 0-2.42-1.656-2.42-3.121 0-1.533.758-3 2.479-3 1.196 0 1.899.807 2.143 1.897l-.699.132c-.209-.755-.584-1.405-1.468-1.405-1.292 0-1.638 1.405-1.638 2.438 0 .467.079 1.046.277 1.48.242.531.705.953 1.326.953.912 0 1.335-.685 1.527-1.463l.674.147zm3.168-1.076c0-1.483.729-3.103 2.442-3.103 1.674 0 2.447 1.525 2.447 2.991 0 1.457-.747 3.13-2.437 3.13-1.705 0-2.452-1.526-2.452-3.018zm4.109-.068c0-.529-.087-1.146-.353-1.621-.271-.469-.729-.8-1.286-.8-1.326 0-1.691 1.432-1.691 2.497 0 1.024.417 2.402 1.675 2.402 1.275.001 1.655-1.456 1.655-2.478zm8.646 2.998H83.3l-3.026-5.185v5.185h-.624v-5.945h.937l2.818 4.846v-4.846h.625v5.945zm5.63 0h-.749V37.89h-1.688v-.647h4.125v.647h-1.688v5.298zm8.393 0l-1.1-2.573h-1.649v2.573h-.746v-5.945h2.23c.485 0 .953.06 1.351.361.401.306.633.8.633 1.303 0 .7-.416 1.335-1.11 1.523l1.17 2.758h-.779zm-1.354-3.179c.397 0 .729-.026 1.022-.331.209-.208.303-.493.303-.779 0-.347-.127-.634-.415-.823-.259-.185-.513-.192-.821-.192h-1.484v2.126h1.395zm9.874 3.179h-.761l-.601-1.733h-2.2l-.529 1.733h-.625l1.925-5.945h.856l1.935 5.945zm-2.437-5.148l-.915 2.853h1.827l-.912-2.853zm9.753 3.294c-.278 1.127-.945 1.942-2.202 1.942-1.716 0-2.417-1.656-2.417-3.121 0-1.533.754-3 2.478-3 1.196 0 1.897.807 2.142 1.897l-.701.132c-.21-.755-.585-1.405-1.469-1.405-1.287 0-1.636 1.405-1.636 2.438 0 .467.079 1.046.277 1.48.242.531.703.953 1.326.953.91 0 1.336-.685 1.525-1.463l.677.147zm5.279 1.854h-.748V37.89h-1.689v-.647h4.127v.647h-1.689v5.298zm4.437-2.93c0-1.483.731-3.103 2.445-3.103 1.674 0 2.444 1.525 2.444 2.991 0 1.457-.746 3.13-2.435 3.13-1.709 0-2.454-1.526-2.454-3.018zm4.112-.068c0-.529-.088-1.146-.356-1.621-.268-.469-.726-.8-1.283-.8-1.325 0-1.69 1.432-1.69 2.497 0 1.024.417 2.402 1.674 2.402 1.272.001 1.655-1.456 1.655-2.478zm7.776 2.998l-1.102-2.573h-1.648v2.573h-.744v-5.945h2.227c.485 0 .952.06 1.351.361.4.306.634.8.634 1.303 0 .7-.417 1.335-1.108 1.523l1.171 2.758h-.781zm-1.352-3.179c.396 0 .728-.026 1.022-.331.207-.208.304-.493.304-.779 0-.347-.132-.634-.416-.823-.261-.185-.514-.192-.825-.192h-1.482v2.126h1.397zm5.837 1.429c.242.825.926 1.206 1.758 1.206.357 0 .789-.078 1.068-.295a.995.995 0 00.366-.765c0-.598-.497-.84-1.018-.969l-.987-.245c-.398-.094-.761-.188-1.072-.476a1.466 1.466 0 01-.487-1.1c0-1.146.987-1.64 2.018-1.64.997 0 1.798.494 2.119 1.455l-.679.185c-.127-.651-.822-1.049-1.455-1.049-.565 0-1.274.294-1.274.944 0 .667.52.814 1.075.945l.893.216c.39.086.78.199 1.082.459.373.305.555.712.555 1.18 0 .537-.234 1.023-.667 1.353s-1.015.434-1.549.434c-1.217 0-2.013-.538-2.411-1.692l.665-.146zM0 26.042c.832.133 1.013.133 1.537.133 2.061 0 2.419-.792 2.419-3.777V.483h4.389v21.739c0 2.414 0 7.772-5.975 7.772-.351 0-1.404 0-2.37-.308v-3.644zm19.203 3.733l-1.01-8.081H14.68l-.92 8.081H9.848L14.372.483h4.303l4.655 29.292h-4.127zM17.798 18.14l-.659-5.229c-.176-1.404-.788-7.157-.879-7.992-.046.835-.087 1.58-.22 2.941-.265 2.812-.307 3.119-.483 5.095l-.57 5.185h2.811zm20.287 11.635V18.709c0-1.494.085-6.323.132-10.673-.089.528-1.013 7.642-1.447 10.673l-1.715 11.066h-3.25l-1.8-11.33c-1.012-6.368-1.012-6.412-1.405-10.409.131 5.754.219 9.135.219 10.542v11.197h-3.426V.483h4.743l2.415 15.369c.352 1.977.613 4.919.921 8.301.132-2.896.396-4.831.966-8.301L36.77.483h4.873v29.292h-3.558zm7.068 0V.483h9.969v3.732h-5.579v8.345h4.042v3.731h-4.042v9.75h5.974v3.733H45.153zm15.943-7.156c.048 1.843.131 3.862 1.845 3.862 1.274 0 1.887-1.229 1.887-4.171 0-3.338-1.054-4.261-3.818-6.588-1.096-.924-3.645-3.471-3.645-7.993 0-4.084 1.536-7.598 5.664-7.598 4.215 0 5.447 3.469 5.664 6.412l-4.084.527c-.308-3.25-.922-3.25-1.535-3.25-1.057 0-1.363 1.363-1.363 3.513 0 2.11.483 3.119 2.898 5.139 2.59 2.24 4.566 4.394 4.566 9.049 0 3.645-.788 8.605-6.19 8.605-5.098 0-5.973-4.26-5.973-7.071l4.084-.436zm32.921 0c.04 1.843.13 3.862 1.844 3.862 1.272 0 1.888-1.229 1.888-4.171 0-3.338-1.055-4.261-3.818-6.588-1.102-.924-3.648-3.471-3.648-7.993 0-4.084 1.534-7.598 5.663-7.598 4.219 0 5.449 3.469 5.668 6.412l-4.088.527c-.308-3.25-.918-3.25-1.537-3.25-1.052 0-1.36 1.363-1.36 3.513 0 2.11.485 3.119 2.897 5.139 2.592 2.24 4.566 4.394 4.566 9.049 0 3.645-.788 8.605-6.19 8.605-5.095 0-5.97-4.26-5.97-7.071l4.085-.436zM110.657.132c4.657 0 6.675 3.688 6.675 15.02 0 11.33-2.018 14.975-6.675 14.975-5.928 0-6.632-6.368-6.632-14.975 0-8.299.573-15.02 6.632-15.02zm-1.581 24.595c.175.834.483 1.755 1.581 1.755 1.099 0 1.406-.88 1.583-1.755.396-1.978.396-8.301.396-8.828 0-4.172-.045-6.019-.221-9.136-.09-2.151-.615-2.986-1.758-2.986-1.098 0-1.406.835-1.581 1.757-.353 1.843-.353 9.44-.353 9.618.001 2.285.001 7.597.353 9.575zm20.176 5.048l-3.909-12.955c-.132-.439-1.055-3.381-1.885-7.377.132 3.337.348 9.045.348 10.889v9.443h-3.602V.483h3.691l3.732 13.176c1.011 3.556 1.364 4.875 2.021 7.686-.219-3.471-.396-7.246-.396-10.453V.483h3.558v29.292h-3.558zm10.004-7.156c.044 1.843.132 3.862 1.844 3.862 1.272 0 1.888-1.229 1.888-4.171 0-3.338-1.053-4.261-3.821-6.588-1.096-.924-3.646-3.471-3.646-7.993 0-4.084 1.537-7.598 5.666-7.598 4.215 0 5.447 3.469 5.663 6.412l-4.081.526c-.307-3.25-.923-3.25-1.537-3.25-1.055 0-1.364 1.363-1.364 3.513 0 2.11.488 3.119 2.901 5.139 2.592 2.24 4.568 4.394 4.568 9.049 0 3.645-.793 8.605-6.193 8.605-5.094 0-5.972-4.26-5.972-7.071l4.084-.435zm-53.718 1.254c-.351.177-.632.249-1.124.249-1.198 0-1.833-.706-2.433-1.551-.527.598-1.44 1.584-3.38 1.584-3.767 0-5.036-3.344-5.036-6.479 0-3.52 1.375-5.423 2.89-7.535-1.127-2.219-1.868-3.627-1.868-5.423C74.587 2.535 75.891 0 78.531 0c2.254 0 4.015 1.688 4.015 4.684 0 1.69-.564 3.451-2.78 5.915l2.534 5.6c.246-1.127.385-3.486.385-3.872l2.575.313c-.18 2.749-.565 4.615-1.445 6.762.351.882.811 1.621 1.445 1.621.142 0 .206-.036.278-.072v2.922zm-7.78-10.844c-.92 1.937-.92 3.979-.92 4.507 0 1.655.428 3.731 2.045 3.731.281 0 1.341-.068 2.007-1.193l-3.132-7.045zm.844-4.929c.458-.6 1.303-1.691 1.303-3.45 0-1.374-.561-1.938-1.158-1.938-.637 0-1.167.669-1.167 1.938-.001 1.442.775 2.954 1.022 3.45zm-5.036 17.942h11.972v3.733H73.566z" fill="#0B2964"></path>
    <path fill="#0A9BD9" d="M35.317 76.483L3.362 58.032v-7.379l31.955 18.451z"></path>
    <path fill="#0B2964" d="M35.317 76.483l31.959-18.451v-7.379L35.317 69.104z"></path>
    <path fill="#0A9BD9" d="M35.317 91.245L3.362 72.793v-7.378l31.955 18.451z"></path>
    <path fill="#0B2964" d="M35.317 91.245l12.784-7.381-6.39-3.69-6.394 3.692z"></path>
    <path fill="#0A9BD9" d="M73.669 98.624l-31.958-18.45v-7.381l31.958 18.452z"></path>
    <path fill="#0B2964" d="M73.669 98.624l31.955-18.45v-7.381L73.669 91.245z"></path>
    <path fill="#0A9BD9" d="M112.016 76.483L80.06 58.032v-7.379l31.956 18.451z"></path>
    <path fill="#0B2964" d="M112.016 76.483l31.957-18.451v-7.379l-31.957 18.451z"></path>
    <path fill="#0A9BD9" d="M73.669 113.385L41.711 94.936v-7.381l31.958 18.449z"></path>
    <path fill="#0B2964" d="M73.669 113.385l31.955-18.449v-7.381l-31.955 18.449z"></path>
    <path fill="#0A9BD9" d="M112.016 91.245l-6.412-3.703.02-7.368 6.392 3.692z"></path>
    <path fill="#0B2964" d="M112.016 91.245l31.957-18.452v-7.378l-31.957 18.451z"></path>
  </symbol>
  <symbol xmlns="http://www.w3.org/2000/svg" viewBox="0 0 226.771 82.032" id="fast-banana">
    <path d="M126.804 51.062l1.062 7.866 3.675-7.866h2.239l-5.138 10.508h-2.326l-1.622-10.508h2.11zm6.979 2.885h2.01l-1.206 7.622h-2.01l1.206-7.622zm.287-2.396c.028-.216.172-.359.402-.359h1.506c.216 0 .302.158.274.359l-.202 1.276c-.029.216-.172.33-.373.33h-1.508c-.201 0-.314-.129-.287-.33l.188-1.276zm3.152 2.396h1.693l.157.962c.618-.518 1.407-1.033 2.354-1.033.33 0 .646 0 .833.086l-.302 1.938c-.201-.014-.66-.043-1.092-.043-.831 0-1.463.144-2.08.847l-.762 4.866h-2.01l1.209-7.623zm8.543-.143c1.092-.058 2.828.187 3.561.89l-1.004 6.861h-1.551l-.301-.789c-.373.474-1.393.89-2.311.89-1.479 0-2.6-1.205-1.996-4.35.603-3.143 2.254-3.43 3.602-3.502zm-.875 6.143c.833 0 1.293-.272 1.752-.717l.545-3.676c-.444-.157-1.105-.229-1.521-.128-.646.128-1.248.329-1.55 2.253-.216 1.435-.116 2.268.774 2.268zm6.496-9.617h2.01l-1.307 8.21c-.188 1.192.028 1.336.445 1.493 0 0 .775.287.832.287l-.188 1.249h-1.291c-1.364 0-2.167-.761-1.853-2.712l1.352-8.527zm8.885.732h2.741l.633 7.178 2.855-7.178h2.829l-.676 10.508h-1.996l.504-7.019-2.843 7.019h-2.282l-.646-7.019-1.693 7.019h-2.023l2.597-10.508zm13.469 2.742c1.092-.058 2.828.187 3.561.89l-1.004 6.861h-1.553l-.301-.789c-.371.474-1.393.89-2.309.89-1.48 0-2.6-1.205-1.998-4.35.604-3.143 2.256-3.43 3.604-3.502zm-.875 6.143c.832 0 1.291-.272 1.75-.717l.547-3.676c-.443-.157-1.105-.229-1.521-.128-.646.128-1.248.329-1.551 2.253-.215 1.435-.116 2.268.775 2.268zm5.992-6h1.695l.156.962c.617-.518 1.406-1.033 2.354-1.033.332 0 .646 0 .834.086l-.303 1.938a16.76 16.76 0 00-1.092-.043c-.832 0-1.465.144-2.08.847l-.762 4.866h-2.008l1.206-7.623zm6.316-3.603h2.01l-1.02 6.375c1.121-.403 2.484-1.537 2.842-2.771h2.141c-.531 1.88-1.91 3.029-2.801 3.488l2.34 4.134h-2.238l-1.936-3.502-.547.014-.561 3.488h-2.01l1.78-11.226zm10.075 3.46c1.637-.015 3.1.445 2.984 2.196-.229 3.474-4.434 2.799-4.967 2.584-.199 1.162.088 1.464 1.107 1.479.848.029 2.225-.101 3.113-.244l-.244 1.436c-1.146.345-2.383.517-3.977.416-1.822-.086-2.41-1.622-1.893-4.406.445-2.341 1.076-3.447 3.877-3.461zm.919 2.468c.127-.703-.26-.86-1.064-.846-1.363.014-1.492.889-1.68 1.837 0 .001 2.498.417 2.744-.991zm2.729-1.922l1.293-.417.672-2.124h1.682l-.346 2.124h1.709l-.244 1.536h-1.709l-.473 3.057c-.188 1.207.016 1.364.43 1.522 0 0 .775.272.848.272l-.201 1.264h-1.379c-1.264 0-2.066-.789-1.766-2.742l.533-3.373h-1.223l.174-1.119zm5.82-.403h2.008l-1.205 7.622h-2.01l1.207-7.622zm.287-2.396c.027-.216.172-.359.402-.359h1.506c.215 0 .303.158.273.359l-.201 1.276c-.027.216-.174.33-.373.33h-1.508c-.199 0-.314-.129-.287-.33l.188-1.276zm3.153 2.396h1.607l.271.818c.732-.474 1.408-.947 2.57-.947 1.779 0 2.082 1.22 1.852 2.67l-.805 5.081h-2.01l.805-5.11c.115-.745-.174-1.032-.674-1.032-.805 0-1.293.214-1.953.659l-.861 5.483h-2.01l1.208-7.622zm6.588 9.847h3.23c.717 0 1.291-.444 1.436-1.363l.215-1.392a3.786 3.786 0 01-1.98.545c-2.238 0-2.627-1.723-2.225-4.264.402-2.569 1.637-3.502 3.344-3.502 1.521 0 3.273.229 3.977.431l-1.334 8.412c-.316 1.966-1.451 3.028-3.461 2.813l-3.416-.345.214-1.335zm3.447-3.789c.645 0 .988-.058 1.65-.315l.688-4.335h-1.535c-1.148 0-1.436 1.42-1.564 2.182-.204 1.348-.374 2.468.761 2.468zM64.517 28.812c.711-4.449 3.863-5.562 6.644-5.562 0 0 5.839 0 9.393.495l-.774 5.035h-7.631c-1.607 0-1.761.896-1.885 1.731l-.216 1.358 7.631.34-.772 4.976-7.755.278-1.329 8.403h-5.994l2.688-17.054zm21.853.34c2.534 0 6.21.401 7.786 1.915l-2.163 14.738h-4.727l-.927-1.545c-.742 1.359-2.688 1.761-4.325 1.761-2.936 0-5.284-3.584-3.955-9.795 1.452-6.858 5.098-7.074 8.311-7.074zm-1.483 12.08c1.298 0 1.916-.587 2.009-1.606l.834-5.87c-.247-.217-1.02-.278-1.637-.124-.896.216-1.792.648-2.163 3.337-.31 2.163-.588 4.263.957 4.263zm9.408.124h7.137c.525 0 .618-.217.68-.525l.031-.154c.062-.371-.031-.557-.525-.557h-2.936c-2.905 0-4.635-2.132-4.141-5.313l.248-1.422c.401-2.534 1.823-4.078 5.005-4.078 4.418 0 8.312-.093 9.115 1.111l-.556 3.522h-6.89c-.401 0-.68 0-.772.557l-.031.186c-.093.494.248.494.618.494h3.09c3.492 0 4.325 2.626 3.924 5.067l-.278 1.823c-.525 3.367-2.781 3.954-4.758 3.954-4.418 0-8.589.124-9.517-1.143l.556-3.522zm15.071-10.752l2.502-1.175 1.606-4.573h5.129l-.741 4.573h2.75l-.649 4.141h-2.749l-.835 5.19c-.339 2.194.03 2.626.649 2.997 0 0 1.204.648 1.421.648l-.556 3.492h-3.708c-2.472 0-4.666-1.546-3.986-5.901l1.02-6.427h-2.317l.464-2.965zm20.303-7.354h9.516c4.82 0 6.427 2.966 5.809 6.798-.309 1.916-1.792 3.893-4.048 4.078 2.256.371 3.491 2.75 3.09 5.686-.834 5.87-3.522 6.056-8.28 6.056h-9.671l3.584-22.618zm6.581 17.55c1.175 0 1.638-.803 1.854-2.162.185-1.144.03-2.226-1.175-2.226h-3.367l-.68 4.388h3.368zm1.143-9.146c.927 0 1.514-.711 1.638-1.575.216-1.359-.433-1.762-1.113-1.762h-3.059l-.525 3.337h3.059zm15.819-2.502c2.534 0 6.211.401 7.787 1.915l-2.164 14.738h-4.727l-.928-1.545c-.74 1.359-2.688 1.761-4.325 1.761-2.936 0-5.283-3.584-3.954-9.795 1.452-6.858 5.099-7.074 8.311-7.074zm-1.482 12.08c1.297 0 1.916-.587 2.008-1.606l.834-5.87c-.247-.217-1.02-.278-1.637-.124-.896.216-1.793.648-2.164 3.337-.308 2.163-.586 4.263.959 4.263zm11.054-11.771h5.005l.742 1.606c1.174-.958 2.316-1.885 4.82-1.885 4.264 0 4.324 2.719 3.77 6.18l-1.668 10.505h-5.994l1.668-10.629c.217-1.298-.061-1.606-.742-1.606-1.143 0-1.945.309-2.441 1.144l-1.76 11.092h-5.994l2.594-16.407zm23.315-.309c2.533 0 6.211.401 7.785 1.915l-2.162 14.738h-4.727l-.928-1.545c-.742 1.359-2.689 1.761-4.326 1.761-2.936 0-5.283-3.584-3.955-9.795 1.454-6.858 5.098-7.074 8.313-7.074zm-1.484 12.08c1.297 0 1.916-.587 2.01-1.606l.832-5.87c-.246-.217-1.018-.278-1.637-.124-.895.216-1.791.648-2.162 3.337-.309 2.163-.588 4.263.957 4.263zm11.054-11.771h5.006l.742 1.606c1.174-.958 2.316-1.885 4.818-1.885 4.266 0 4.326 2.719 3.77 6.18l-1.668 10.505h-5.994l1.67-10.629c.215-1.298-.062-1.606-.742-1.606-1.145 0-1.947.309-2.441 1.144l-1.762 11.092h-5.992l2.593-16.407zm23.317-.309c2.533 0 6.209.401 7.785 1.915l-2.162 14.738h-4.729l-.926-1.545c-.742 1.359-2.689 1.761-4.326 1.761-2.936 0-5.283-3.584-3.955-9.795 1.453-6.858 5.098-7.074 8.313-7.074zm-1.485 12.08c1.299 0 1.916-.587 2.008-1.606l.834-5.87c-.246-.217-1.018-.278-1.637-.124-.895.216-1.793.648-2.162 3.337-.308 2.163-.587 4.263.957 4.263zM55.44 10.5L28.36 7.608 56.914 4.72zM43.854 22.06l-28.173-2.892 29.65-2.889zm-2.946 11.559L6.383 30.728l35.998-2.889zM37.96 45.18L0 42.287l39.434-2.89zm-2.946 11.558L6.383 53.847l30.103-2.889zm6.218 11.674l-25.551-2.891 27.025-2.89zm14.31 11.55L28.36 77.069l28.656-2.888z"></path>
    <path fill="#FACC00" d="M56.986 3.478c1.162-.357 6.253-1.896 6.879-1.18.626.715 2.305 2.464 2.862 3.309.716 1.084.269 1.252-.268 2.058-.537.806-3.667 4.473-6.887 6.351-3.221 1.878-3.043 3.668-2.773 5.188.268 1.521 1.341 5.098-1.342 11.09-2.684 5.993-4.92 14.043-1.431 21.915 3.489 7.871 7.782 14.132 8.319 17.083.536 2.952 0 4.473.982 5.636.985 1.162.538 5.635-4.382 4.919s-16.547-3.13-22.809-13.416c-6.261-10.287-9.48-25.761-3.398-37.925S47.23 13.478 50.896 12.137c3.667-1.342 4.928-8.301 6.09-8.659z"></path>
    <path fill="#EEA200" d="M62.346 69.291c-.537-2.951-4.83-9.212-8.319-17.083-3.489-7.872-1.252-15.922 1.431-21.915 2.683-5.992 1.61-9.569 1.342-11.09a7.126 7.126 0 01-.134-1.188c-.908-.044-3.838.36-5.23 1.617-4.638 4.189-9.465 12.908-8.298 24.543 1.291 12.872 7.594 27.313 20.613 32.344.021-.668-.143-1.264-.422-1.593-.983-1.162-.447-2.683-.983-5.635z"></path>
    <path fill="#FDE06C" d="M43.018 37.283s.079-.478.272-1.288c1.088-7.544 4.669-13.225 8.143-16.362.806-.727 2.125-1.168 3.27-1.402l.001-.001s-.913-5.776-6.605-5.008c-4.225 1.823-10.529 5.611-15.364 15.283-3.414 6.828-3.896 14.7-2.556 22.11 1-6.493 5.088-28.403 12.839-13.332z"></path>
    <path d="M59.958 82.031c-.423 0-.859-.032-1.316-.099-2.565-.374-6.901-1.188-11.479-3.29-4.572-2.098-9.428-5.53-12.828-11.117-4.111-6.77-6.947-15.551-6.955-24.429 0-5.301 1.024-10.646 3.472-15.536 3.18-6.372 7.053-10.421 10.632-13.008 3.568-2.586 6.866-3.731 8.686-4.398.509-.164 1.212-.807 1.855-1.845.644-1.021 1.204-2.316 1.698-3.461.343-.773.621-1.45 1.067-2.129.284-.365.561-.891 1.575-1.258.489-.149 1.646-.502 2.916-.823C60.576.321 61.884.015 63.114 0c.291.001.587.015.958.102.358.094.868.242 1.382.807.266.306.856.938 1.438 1.586.594.668 1.165 1.308 1.598 1.951.347.543.702 1.156.719 2.07.005.773-.344 1.409-.55 1.704-.221.319-.345.463-.443.613-.237.351-.549.739-1.007 1.275a34.694 34.694 0 01-1.694 1.819c-1.337 1.332-3.017 2.817-4.879 3.909-1.001.583-1.447 1.066-1.64 1.365-.185.305-.208.45-.219.768a4.99 4.99 0 00.099.865c.1.579.477 2.043.472 3.979.002 2.151-.445 4.955-1.963 8.341-1.635 3.641-3.042 7.996-3.036 12.432 0 2.572.458 5.171 1.607 7.765 2.552 5.764 5.569 10.668 7.261 14.229.565 1.206.999 2.248 1.206 3.333.425 2.477.289 4.162.449 4.499.038.121.037.104.07.152.742.933.898 1.857.923 2.843-.005 1.2-.361 2.554-1.356 3.714-.972 1.151-2.604 1.911-4.468 1.911l-.083-.001zm-2.507-75.17c-.599 1.361-1.354 3.131-2.548 4.693-.799 1.034-1.838 2.028-3.281 2.563-1.846.674-4.587 1.632-7.662 3.853-3.062 2.221-6.433 5.684-9.334 11.478-2.105 4.205-3.027 8.886-3.027 13.648-.009 7.962 2.612 16.125 6.341 22.235 2.861 4.699 6.948 7.618 10.986 9.477 4.031 1.855 7.969 2.608 10.319 2.948.269.039.506.055.713.055.922-.023 1.155-.249 1.361-.455.198-.215.329-.617.323-.949.002-.1-.01-.185-.02-.236a4.583 4.583 0 01-.821-1.644c-.16-.589-.205-1.116-.238-1.616-.06-.999-.06-1.947-.295-3.244-.062-.389-.365-1.236-.866-2.282-.499-1.053-1.182-2.336-1.966-3.787-1.571-2.909-3.549-6.498-5.339-10.536-1.411-3.179-1.972-6.399-1.97-9.475.004-5.321 1.64-10.207 3.403-14.155 1.291-2.895 1.593-5.038 1.597-6.617-.004-1.458-.248-2.375-.408-3.246a9.38 9.38 0 01-.164-1.599c-.01-.905.225-2.04.896-3.06.665-1.026 1.672-1.91 3.056-2.719 2.047-1.177 4.356-3.492 5.503-4.838.378-.438.659-.807.69-.858l.028-.042c-.239-.3-.609-.734-.978-1.14-.339-.378-.681-.748-.978-1.075-.565.062-1.562.256-2.46.491a54.92 54.92 0 00-2.169.602c-.169.328-.415.885-.692 1.53zm4.158 69.263zM57.226 4.257l-.241-.779.241.779z"></path>
  </symbol>
</svg>