<svg width="0" height="0" class="hidden">
  <symbol xmlns="http://www.w3.org/2000/svg" viewBox="0 0 512 512" id="order" fill="#ff8989">
    <path d="M327.276 275.429h30v30h-30zm-69.061 0h30v30h-30zm-69.063 0h30v30h-30z"></path>
    <path d="M512 118.286C512 53.063 458.938 0 393.714 0c-47.587 0-88.694 28.25-107.448 68.857H104.318L97.432 0H0v30h70.282l4.306 43.054 27.4 274.005c-19.27 6.751-33.131 25.11-33.131 46.655 0 27.255 22.174 49.428 49.429 49.428h23.208a49.144 49.144 0 00-3.984 19.429c0 27.255 22.173 49.429 49.428 49.429s49.429-22.174 49.429-49.429a49.151 49.151 0 00-3.984-19.429h81.665a49.144 49.144 0 00-3.984 19.429c0 27.255 22.174 49.429 49.429 49.429s49.429-22.174 49.429-49.429a49.151 49.151 0 00-3.984-19.429h36.777v-30H118.286c-10.713 0-19.429-8.715-19.429-19.428s8.716-19.429 19.429-19.429h323.432l15.633-156.33C490.191 196.915 512 160.1 512 118.286zM186.937 482c-10.713 0-19.428-8.716-19.428-19.429s8.715-19.428 19.428-19.428 19.429 8.715 19.429 19.428S197.65 482 186.937 482zm172.554 0c-10.713 0-19.429-8.716-19.429-19.429s8.716-19.428 19.429-19.428 19.429 8.715 19.429 19.428S370.204 482 359.491 482zm34.223-452C442.396 30 482 69.605 482 118.286s-39.604 88.286-88.286 88.286c-48.681 0-88.285-39.605-88.285-88.286S345.033 30 393.714 30zm20.853 314.286H131.86L107.318 98.857h169.715a118.641 118.641 0 00-1.604 19.429c0 65.223 53.063 118.286 118.285 118.286 11.11 0 21.865-1.542 32.067-4.419z"></path>
    <path d="M451.125 100.518l-21.213-21.213-46.142 46.142-26.254-26.253-21.213 21.213 47.467 47.467z"></path>
  </symbol>
  <symbol xmlns="http://www.w3.org/2000/svg" viewBox="0 0 512 512" id="online-order" fill="rgba(245, 245, 245,0.8)">
    <path d="M470.87 213.842c0-12.125-5.373-23.012-13.854-30.429 8.481-7.416 13.854-18.303 13.854-30.428 0-22.292-18.137-40.429-40.429-40.429h-8.682a33.307 33.307 0 00-13.507 2.853V38.281C408.253 17.173 391.08 0 369.972 0H201.581C180.473 0 163.3 17.173 163.3 38.281v80.122c-10.13-11.247-23.641-19.142-39.476-22.266-12.945-2.538-25.304 7.757-25.304 20.903v122.677c0 15.462-2.751 30.542-8.178 44.82-8.564 22.538-18.725 56.649-19.324 92.741l-27.921 37.644a10.007 10.007 0 00-1.968 5.957V502c0 5.523 4.478 10 10 10H208.1a9.997 9.997 0 007.649-3.559l34.289-40.72c16.333-1.877 74.612-10.805 106.694-44.983h13.24c21.108 0 38.281-17.173 38.281-38.281V373.13a33.304 33.304 0 0013.507 2.853h8.682c22.292 0 40.429-18.136 40.429-40.429 0-12.125-5.373-23.012-13.854-30.428 8.481-7.416 13.854-18.304 13.854-30.429s-5.373-23.012-13.854-30.428c8.48-7.415 13.853-18.302 13.853-30.427zm-49.11-81.285h8.682c11.265 0 20.429 9.164 20.429 20.429 0 11.264-9.164 20.428-20.429 20.428h-8.682c-7.447 0-13.507-6.06-13.507-13.507v-13.842c0-7.449 6.06-13.508 13.507-13.508zM304.604 20v2.211c0 10.331-8.405 18.736-18.736 18.736s-18.735-8.405-18.735-18.736V20zm83.649 364.458c0 10.08-8.201 18.281-18.281 18.281H201.581c-10.08 0-18.281-8.201-18.281-18.281v-52.626c0-5.523-4.478-10-10-10s-10 4.477-10 10v52.628c0 21.108 17.173 38.28 38.28 38.28h123.793c-33.518 21.394-80.589 25.425-81.157 25.471a9.998 9.998 0 00-6.865 3.528L203.447 492H61.13v-67.816l27.893-37.606a10.007 10.007 0 001.968-5.957c0-34.287 9.814-67.312 18.048-88.978 6.292-16.556 9.482-34.026 9.482-51.925V117.04c0-.748.679-1.427 1.444-1.279 25.92 5.113 43.335 28.289 43.335 57.669v70.407c0 5.523 4.478 10 10 10s10-4.477 10-10V38.281c0-10.08 8.201-18.281 18.281-18.281h45.551v2.211c0 21.359 17.377 38.736 38.735 38.736 21.359 0 38.736-17.377 38.736-38.736V20h45.368c10.08 0 18.281 8.201 18.281 18.281v346.177zm62.617-48.902c0 11.265-9.164 20.429-20.429 20.429h-8.682c-7.447 0-13.507-6.06-13.507-13.507v-13.842c0-7.448 6.06-13.507 13.507-13.507h8.682c11.265-.002 20.429 9.163 20.429 20.427zm0-60.857c0 11.264-9.164 20.428-20.429 20.428h-8.682c-7.447 0-13.507-6.06-13.507-13.507v-13.842c0-7.448 6.06-13.507 13.507-13.507h8.682c11.265 0 20.429 9.164 20.429 20.428zm-29.11-40.428c-7.447 0-13.507-6.06-13.507-13.507v-13.842c0-7.448 6.06-13.507 13.507-13.507h8.682c11.265 0 20.429 9.164 20.429 20.429 0 11.264-9.164 20.428-20.429 20.428h-8.682z"></path>
    <path d="M309.607 286.549h-47.769c-19.067 0-34.579 15.512-34.579 34.579s15.512 34.579 34.579 34.579h47.769c19.067 0 34.579-15.512 34.579-34.579s-15.511-34.579-34.579-34.579zm0 49.157h-47.769c-8.039 0-14.579-6.54-14.579-14.579s6.54-14.579 14.579-14.579h47.769c8.039 0 14.579 6.54 14.579 14.579s-6.54 14.579-14.579 14.579zm45.089-198.303a10 10 0 00-9.944-8.945h-26.221v-7.391c0-18.011-14.653-32.664-32.664-32.664s-32.663 14.653-32.663 32.664v7.391h-26.511a10 10 0 00-9.944 8.945l-10 94.287a10 10 0 009.945 11.055h138.059a10.002 10.002 0 009.945-11.055zm-81.492-16.336c0-6.983 5.681-12.664 12.663-12.664 6.983 0 12.664 5.681 12.664 12.664v7.391h-25.327zM227.81 222.744l7.879-74.287h17.516v9.943c0 5.523 4.478 10 10 10s10-4.477 10-10v-9.943h25.327v9.943c0 5.523 4.478 10 10 10s10-4.477 10-10v-9.943h17.226l7.879 74.287zm-45.18 60.676c-2.065-5.039-8.04-7.494-13.061-5.41-5.032 2.089-7.496 8.021-5.409 13.06 2.083 5.029 8.03 7.498 13.06 5.41 5.021-2.085 7.505-8.031 5.41-13.06z"></path>
  </symbol>
  <symbol xmlns="http://www.w3.org/2000/svg" viewBox="0 0 512 512" id="truck" fill="rgba(245, 245, 245,0.8)">
    <path d="M119.467 337.067c-28.237 0-51.2 22.963-51.2 51.2 0 28.237 22.963 51.2 51.2 51.2s51.2-22.963 51.2-51.2c0-28.237-22.964-51.2-51.2-51.2zm0 85.333c-18.825 0-34.133-15.309-34.133-34.133 0-18.825 15.309-34.133 34.133-34.133s34.133 15.309 34.133 34.133c0 18.824-15.309 34.133-34.133 34.133zM409.6 337.067c-28.237 0-51.2 22.963-51.2 51.2 0 28.237 22.963 51.2 51.2 51.2 28.237 0 51.2-22.963 51.2-51.2 0-28.237-22.963-51.2-51.2-51.2zm0 85.333c-18.825 0-34.133-15.309-34.133-34.133 0-18.825 15.309-34.133 34.133-34.133 18.825 0 34.133 15.309 34.133 34.133 0 18.824-15.308 34.133-34.133 34.133z"></path>
    <path d="M510.643 289.784l-76.8-119.467a8.535 8.535 0 00-7.177-3.917H332.8a8.53 8.53 0 00-8.533 8.533v213.333a8.525 8.525 0 008.533 8.533h34.133v-17.067h-25.6V183.467h80.674l72.926 113.442v82.825h-42.667V396.8h51.2a8.525 8.525 0 008.533-8.533V294.4a8.51 8.51 0 00-1.356-4.616z"></path>
    <path d="M375.467 277.333V217.6h68.267v-17.067h-76.8a8.53 8.53 0 00-8.533 8.533v76.8a8.525 8.525 0 008.533 8.533h128v-17.067H375.467zM332.8 106.667H8.533A8.536 8.536 0 000 115.2v273.067a8.53 8.53 0 008.533 8.533H76.8v-17.067H17.067v-256h307.2v256H162.133V396.8H332.8a8.525 8.525 0 008.533-8.533V115.2a8.53 8.53 0 00-8.533-8.533z"></path>
    <path d="M8.533 345.6h51.2v17.067h-51.2zm170.667 0h145.067v17.067H179.2zm290.133 0h34.133v17.067h-34.133zm-435.2-204.8H332.8v17.067H34.133zm76.8 238.933H128V396.8h-17.067zm290.134 0h17.067V396.8h-17.067zM34.133 72.533H153.6V89.6H34.133zM0 72.533h17.067V89.6H0z"></path>
  </symbol>
</svg>